<?xml version="1.0" encoding="UTF-8" standalone="no"?><!DOCTYPE svg PUBLIC "-//W3C//DTD SVG 1.1//EN" "http://www.w3.org/Graphics/SVG/1.1/DTD/svg11.dtd"><svg width="100%" height="100%" viewBox="0 0 20 24" version="1.1" xmlns="http://www.w3.org/2000/svg" xmlns:xlink="http://www.w3.org/1999/xlink" xml:space="preserve" xmlns:serif="http://www.serif.com/" style="fill-rule:evenodd;clip-rule:evenodd;stroke-linejoin:round;stroke-miterlimit:1.41421;"><path id="arrow" d="M0.929,18.038l-0.929,0l0,-12.652l7.218,0l0,-5.386l1.857,0l0,1.671l1.825,0l0,1.857l-1.825,0l0,3.715l-7.218,0l0,8.937l7.218,0l0,3.715l1.825,0l0,1.857l-1.825,0l0,1.849l-1.857,0l0,-5.563l-6.289,0Zm17.307,-7.243l1.764,0l0,1.857l-1.857,0l0,-1.788l-1.764,0l0,-1.857l1.857,0l0,1.788Zm-5.571,7.243l-1.765,0l0,1.857l1.857,0l0,-1.765l1.765,0l0,-1.857l-1.857,0l0,1.765Zm1.857,-3.529l1.857,0l0,1.857l-1.857,0l0,-1.857Zm1.857,-1.857l1.857,0l0,1.857l-1.857,0l0,-1.857Zm-1.857,-5.502l1.857,0l0,1.857l-1.857,0l0,-1.857Zm-1.857,-1.764l1.857,0l0,1.857l-1.857,0l0,-1.857Zm-1.765,-1.858l1.857,0l0,1.858l-1.857,0l0,-1.858Z"/></svg>