<?xml version="1.0" encoding="UTF-8"?>
<svg viewBox="0 0 441 442" version="1.1" xmlns="http://www.w3.org/2000/svg" xmlns:xlink="http://www.w3.org/1999/xlink">
    <title>disk</title>
    <g id="Page-1" stroke="none" stroke-width="1" fill="none" fill-rule="evenodd">
        <g id="disk">
            <polygon id="disk-bg" fill="#FFFFFF" points="8.01830463 19.6773041 7.64793189 434.287474 422.443288 434.063592 434.983446 419.234863 435.414626 62.963927 374.607162 6.81928929 20.3677479 6.52630787"></polygon>
            <path d="M277.3008,111.922184 L290.0016,111.922184 L290.0016,42.7733836 L275.8896,42.7733836 L275.8896,111.216584 L234.2592,111.216584 L234.2592,125.328584 L277.3008,125.328584 L277.3008,111.922184 Z M95.256,14.5493836 L95.256,138.029384 L109.368,138.029384 L109.368,14.5493836 L317.52,14.5493836 L317.52,138.029384 L331.632,138.029384 L331.632,14.5493836 L383.8464,14.5493836 L383.8464,0.437383556 L13.4064,0.437383556 L13.4064,14.5493836 L95.256,14.5493836 Z M370.44,427.325384 L67.7376,427.325384 L67.7376,209.294984 L53.6256,209.294984 L53.6256,427.325384 L14.112,427.325384 L14.112,15.2549836 L0,15.2549836 L0,441.437384 L8.82,441.437384 L426.888,441.437384 L426.888,427.325384 L384.552,427.325384 L384.552,207.178184 L370.44,207.178184 L370.44,427.325384 Z M383.8464,14.5493836 L397.9584,14.5493836 L397.9584,28.6613836 L383.8464,28.6613836 L383.8464,14.5493836 Z M397.9584,28.6613836 L412.0704,28.6613836 L412.0704,42.7733836 L397.9584,42.7733836 L397.9584,28.6613836 Z M412.0704,42.7733836 L426.1824,42.7733836 L426.1824,56.8853836 L412.0704,56.8853836 L412.0704,42.7733836 Z M67.7376,207.178184 L67.7376,193.066184 L370.44,193.066184 L370.44,207.178184 L67.7376,207.178184 Z M233.5536,111.922184 L219.4416,111.922184 L219.4416,42.7733836 L233.5536,42.7733836 L233.5536,111.922184 Z M426.888,56.8853836 L441,56.8853836 L441,427.325384 L426.888,427.325384 L426.888,56.8853836 Z M109.368,153.552584 L109.368,139.440584 L318.2256,139.440584 L318.2256,153.552584 L109.368,153.552584 Z M234.2592,42.7733836 L234.2592,28.6613836 L277.3008,28.6613836 L277.3008,42.7733836 L234.2592,42.7733836 Z" fill="#000000"></path>
        </g>
    </g>
</svg>
