<?xml version="1.0" encoding="utf-8"?>
<!-- Generator: Adobe Illustrator 21.1.0, SVG Export Plug-In . SVG Version: 6.00 Build 0)  -->
<svg version="1.1" id="Layer_1" xmlns="http://www.w3.org/2000/svg" xmlns:xlink="http://www.w3.org/1999/xlink" x="0px" y="0px"
	 viewBox="0 0 517 518" style="enable-background:new 0 0 517 518;" xml:space="preserve">
<style type="text/css">
	.st0{fill:#FFFFFF;}
</style>
<title>folder</title>
<g id="Page-1">
	<g id="folder">
		<polygon id="folder-bg" class="st0" points="67.8,149 34.1,182.5 7.2,201.5 8.2,510.5 511.2,510.4 510.2,203 489.3,189.7 
			219.9,189.8 200.4,155 183.8,146.6 		"/>
		<path id="Folder" d="M63,152H48v15H33v16h16v-15h15v-15h129v15h15v15h16v-16h-15v-15h-15v-13H63V152z M509.5,518h7.5V197h-14v307
			H14V197H0v321h7.5H509.5z M503,183v14H14v-14H503z"/>
	</g>
</g>
</svg>
