<?xml version="1.0" encoding="UTF-8"?>
<svg width="350px" height="492px" viewBox="0 0 350 492" version="1.1" xmlns="http://www.w3.org/2000/svg" xmlns:xlink="http://www.w3.org/1999/xlink">
    <title>trash</title>
    <g id="Page-1" stroke="none" stroke-width="1" fill="none" fill-rule="evenodd">
        <g id="trash">
            <polygon id="trash-bg" fill="#FFFFFF" points="141.892012 12.9344835 132.129104 24.5861633 131.219813 37.2492293 26.8651738 39.9707197 9.54398823 59.3976305 9.17070057 87.0751557 23.8310151 88.4438772 25.4645474 464.692315 40.0259567 481.997548 313.987195 481.783785 329.397275 465.301699 329.023987 88.9160701 343.186585 82.1330824 340.36938 51.2554928 318.970744 42.7911153 222.838005 40.4716271 222.075477 24.921165 198.845499 9.87480086"></polygon>
            <path d="M19,79.9373836 L320.5,79.9373836 L320.5,79.4373836 L330.5,79.4373836 L330.5,50.4373836 L18.5,50.4373836 L18.5,33.4373836 L337.5,33.4373836 L337.5,45.4373836 L349.5,45.4373836 L349.5,79.9373836 L350,79.9373836 L350,96.9373836 L337.5,96.9373836 L337.5,474.437384 L320.5,474.437384 L320.5,96.9373836 L34.5,96.9373836 L34.5,474.437384 L17.5,474.437384 L17.5,96.9373836 L0,96.9373836 L5.35782975e-16,88.1873836 L0,50.4373836 L19,50.4373836 L19,79.9373836 Z M137.5,17.4373836 L122.5,17.4373836 L122.5,33.4373836 L138.5,33.4373836 L138.5,19.4373836 L213.5,19.4373836 L213.5,33.4373836 L229.5,33.4373836 L229.5,17.4373836 L214.5,17.4373836 L214.5,0.437383556 L137.5,0.437383556 L137.5,17.4373836 Z M77.5,141.437384 L93.5,141.437384 L93.5,428.437384 L77.5,428.437384 L77.5,141.437384 Z M137.5,141.437384 L153.5,141.437384 L153.5,428.437384 L137.5,428.437384 L137.5,141.437384 Z M198.5,141.437384 L214.5,141.437384 L214.5,428.437384 L198.5,428.437384 L198.5,141.437384 Z M259.5,141.437384 L275.5,141.437384 L275.5,428.437384 L259.5,428.437384 L259.5,141.437384 Z M92.5,125.437384 L108.5,125.437384 L108.5,141.437384 L92.5,141.437384 L92.5,125.437384 Z M152.5,125.437384 L168.5,125.437384 L168.5,141.437384 L152.5,141.437384 L152.5,125.437384 Z M213.5,125.437384 L229.5,125.437384 L229.5,141.437384 L213.5,141.437384 L213.5,125.437384 Z M274.5,125.437384 L290.5,125.437384 L290.5,141.437384 L274.5,141.437384 L274.5,125.437384 Z M92.5,428.437384 L108.5,428.437384 L108.5,444.437384 L92.5,444.437384 L92.5,428.437384 Z M152.5,428.437384 L168.5,428.437384 L168.5,444.437384 L152.5,444.437384 L152.5,428.437384 Z M213.5,428.437384 L229.5,428.437384 L229.5,444.437384 L213.5,444.437384 L213.5,428.437384 Z M274.5,428.437384 L290.5,428.437384 L290.5,444.437384 L274.5,444.437384 L274.5,428.437384 Z M34.5,491.437384 L34.5,474.437384 L320.5,474.437384 L320.5,491.437384 L34.5,491.437384 Z" id="Trash" fill="#000000"></path>
        </g>
    </g>
</svg>
