<?xml version="1.0" encoding="UTF-8"?>
<svg width="490px" height="488px" viewBox="0 0 490 488" version="1.1" xmlns="http://www.w3.org/2000/svg" xmlns:xlink="http://www.w3.org/1999/xlink">
    <!-- Generator: Sketch 41.2 (35397) - http://www.bohemiancoding.com/sketch -->
    <title>app</title>
    <desc>Created with Sketch.</desc>
    <defs></defs>
    <g id="Page-1" stroke="none" stroke-width="1" fill="none" fill-rule="evenodd">
        <g id="app">
            <polygon id="app-bg" fill="#FFFFFF" points="243.197084 6.55256109 8.97981495 241.401547 22.3926468 261.112412 243.921326 481.486132 359.675596 364.570523 406.272743 360.981219 417.742565 377.141065 465.647815 368.04816 453.278274 287.229786 452.183935 273.303285 480.643131 245.268425"></polygon>
            <path d="M236.487718,487.852606 L236.487718,488 L251.257876,488 L251.257876,473.229842 L251.09269,473.229842 L251.09269,473.082448 L236.322532,473.082448 L236.322532,487.852606 L236.487718,487.852606 Z M443.104748,281.217784 L443.104748,281.07039 L443.269934,281.07039 L443.269934,266.447626 L458.040092,266.447626 L458.040092,281.07039 L490,281.07039 L490,406.985989 L443.104748,406.985989 L443.104748,295.987943 L428.499775,295.987943 L428.499775,295.840549 L428.334589,295.840549 L428.334589,281.07039 L443.104748,281.07039 L443.104748,281.217784 L443.269934,281.217784 L443.269934,295.987943 L443.104748,295.987943 Z M354.648984,370.429848 L413.564431,370.429848 L413.564431,355.65969 L289.864356,355.65969 L289.864356,370.429848 L339.878826,370.429848 L339.878826,384.608892 L354.648984,384.608892 L354.648984,370.429848 Z M251.09269,0.584777694 L251.09269,0.437383556 L236.322532,0.437383556 L236.322532,15.2075418 L236.487718,15.2075418 L236.487718,15.3549359 L251.257876,15.3549359 L251.257876,0.584777694 L251.09269,0.584777694 Z M205.120573,281.07039 L228.937453,281.07039 L228.937453,295.840549 L228.198945,295.840549 L228.198945,296.579057 L181.303693,296.579057 L181.303693,281.07039 L205.120573,281.07039 Z M242.969103,266.300232 L242.969103,249.31455 L228.198945,249.31455 L228.198945,273.685311 L228.198945,281.07039 L275.094197,281.07039 L275.094197,266.300232 L242.969103,266.300232 Z M259.585531,219.774234 L274.35569,219.774234 L274.35569,234.544392 L259.585531,234.544392 L259.585531,219.774234 Z M243.338357,234.544392 L258.108515,234.544392 L258.108515,249.31455 L243.338357,249.31455 L243.338357,234.544392 Z M367.77694,219.774234 L382.547099,219.774234 L382.547099,234.544392 L367.77694,234.544392 L367.77694,219.774234 Z M382.547099,234.544392 L397.317257,234.544392 L397.317257,249.31455 L382.547099,249.31455 L382.547099,234.544392 Z M397.317257,249.31455 L412.087415,249.31455 L412.087415,264.084708 L397.317257,264.084708 L397.317257,249.31455 Z M413.564431,266.300232 L428.334589,266.300232 L428.334589,281.07039 L413.564431,281.07039 L413.564431,266.300232 Z M213.428787,296.579057 L228.198945,296.579057 L228.198945,311.349215 L213.428787,311.349215 L213.428787,296.579057 Z M228.198945,311.349215 L242.969103,311.349215 L242.969103,326.119373 L228.198945,326.119373 L228.198945,311.349215 Z M243.338357,326.119373 L258.108515,326.119373 L258.108515,340.889531 L243.338357,340.889531 L243.338357,326.119373 Z M306.480784,266.300232 L321.250942,266.300232 L321.250942,281.07039 L306.480784,281.07039 L306.480784,266.300232 Z M275.094197,251.530074 L304.634514,251.530074 L304.634514,266.300232 L275.094197,266.300232 L275.094197,251.530074 Z M259.585531,340.889531 L289.125848,340.889531 L289.125848,355.65969 L259.585531,355.65969 L259.585531,340.889531 Z M259.585531,281.07039 L367.77694,281.07039 L367.77694,295.840549 L259.585531,295.840549 L259.585531,281.07039 Z M275.463451,295.840549 L305.003768,295.840549 L305.003768,310.610707 L275.463451,310.610707 L275.463451,295.840549 Z M413.564431,370.429848 L443.104748,370.429848 L443.104748,385.200006 L413.564431,385.200006 L413.564431,370.429848 Z M275.463451,205.004075 L367.77694,205.004075 L367.77694,219.774234 L275.463451,219.774234 L275.463451,205.004075 Z M9.76996262e-15,251.530074 L1.0674374e-14,236.759916 L14.7701583,236.759916 L14.7701583,251.530074 L9.76996262e-15,251.530074 Z M177.241899,74.2881748 L177.241899,59.5180166 L192.012057,59.5180166 L192.012057,74.2881748 L177.241899,74.2881748 Z M59.080633,192.449441 L59.080633,177.679283 L73.8507913,177.679283 L73.8507913,192.449441 L59.080633,192.449441 Z M118.161266,133.368808 L118.161266,118.59865 L132.931424,118.59865 L132.931424,133.368808 L118.161266,133.368808 Z M14.7701583,236.759916 L14.7701583,221.989757 L29.5403165,221.989757 L29.5403165,236.759916 L14.7701583,236.759916 Z M192.012057,59.5180166 L192.012057,44.7478583 L206.782216,44.7478583 L206.782216,59.5180166 L192.012057,59.5180166 Z M73.8507913,177.679283 L73.8507913,162.909124 L88.6209495,162.909124 L88.6209495,177.679283 L73.8507913,177.679283 Z M132.931424,118.59865 L132.931424,103.828491 L147.701583,103.828491 L147.701583,118.59865 L132.931424,118.59865 Z M29.5403165,221.989757 L29.5403165,207.219599 L44.3104748,207.219599 L44.3104748,221.989757 L29.5403165,221.989757 Z M206.782216,44.7478583 L206.782216,29.9777001 L221.552374,29.9777001 L221.552374,44.7478583 L206.782216,44.7478583 Z M88.6209495,162.909124 L88.6209495,148.138966 L103.391108,148.138966 L103.391108,162.909124 L88.6209495,162.909124 Z M147.701583,103.828491 L147.701583,89.0583331 L162.471741,89.0583331 L162.471741,103.828491 L147.701583,103.828491 Z M44.3104748,207.219599 L44.3104748,192.449441 L59.080633,192.449441 L59.080633,207.219599 L44.3104748,207.219599 Z M221.552374,29.9777001 L221.552374,15.2075418 L236.322532,15.2075418 L236.322532,29.9777001 L221.552374,29.9777001 Z M103.391108,148.138966 L103.391108,133.368808 L118.161266,133.368808 L118.161266,148.138966 L103.391108,148.138966 Z M162.471741,89.0583331 L162.471741,74.2881748 L177.241899,74.2881748 L177.241899,89.0583331 L162.471741,89.0583331 Z M413.729617,177.826677 L428.499775,177.826677 L428.499775,192.596835 L413.729617,192.596835 L413.729617,177.826677 Z M295.568351,59.6654107 L310.338509,59.6654107 L310.338509,74.435569 L295.568351,74.435569 L295.568351,59.6654107 Z M472.81025,236.90731 L487.580408,236.90731 L487.580408,251.677468 L472.81025,251.677468 L472.81025,236.90731 Z M354.648984,118.746044 L369.419142,118.746044 L369.419142,133.516202 L354.648984,133.516202 L354.648984,118.746044 Z M251.257876,15.3549359 L266.028035,15.3549359 L266.028035,30.1250942 L251.257876,30.1250942 L251.257876,15.3549359 Z M428.499775,192.596835 L443.269934,192.596835 L443.269934,207.366993 L428.499775,207.366993 L428.499775,192.596835 Z M310.338509,74.435569 L325.108668,74.435569 L325.108668,89.2057272 L310.338509,89.2057272 L310.338509,74.435569 Z M369.419142,133.516202 L384.189301,133.516202 L384.189301,148.28636 L369.419142,148.28636 L369.419142,133.516202 Z M266.028035,30.1250942 L280.798193,30.1250942 L280.798193,44.8952524 L266.028035,44.8952524 L266.028035,30.1250942 Z M443.269934,207.366993 L458.040092,207.366993 L458.040092,222.137151 L443.269934,222.137151 L443.269934,207.366993 Z M325.108668,89.2057272 L339.878826,89.2057272 L339.878826,103.975885 L325.108668,103.975885 L325.108668,89.2057272 Z M384.189301,148.28636 L398.959459,148.28636 L398.959459,163.056518 L384.189301,163.056518 L384.189301,148.28636 Z M280.798193,44.8952524 L295.568351,44.8952524 L295.568351,59.6654107 L280.798193,59.6654107 L280.798193,44.8952524 Z M458.040092,222.137151 L472.81025,222.137151 L472.81025,236.90731 L458.040092,236.90731 L458.040092,222.137151 Z M339.878826,103.975885 L354.648984,103.975885 L354.648984,118.746044 L339.878826,118.746044 L339.878826,103.975885 Z M398.959459,163.056518 L413.729617,163.056518 L413.729617,177.826677 L398.959459,177.826677 L398.959459,163.056518 Z M310.338509,414.149209 L310.338509,428.919367 L295.568351,428.919367 L295.568351,414.149209 L310.338509,414.149209 Z M472.81025,251.677468 L472.81025,266.447626 L458.040092,266.447626 L458.040092,251.677468 L472.81025,251.677468 Z M295.568351,428.919367 L295.568351,443.689525 L280.798193,443.689525 L280.798193,428.919367 L295.568351,428.919367 Z M280.798193,443.689525 L280.798193,458.459683 L266.028035,458.459683 L266.028035,443.689525 L280.798193,443.689525 Z M339.878826,384.608892 L339.878826,399.37905 L325.108668,399.37905 L325.108668,384.608892 L339.878826,384.608892 Z M266.028035,458.459683 L266.028035,473.229842 L251.257876,473.229842 L251.257876,458.459683 L266.028035,458.459683 Z M325.108668,399.37905 L325.108668,414.149209 L310.338509,414.149209 L310.338509,399.37905 L325.108668,399.37905 Z M73.8507913,310.610707 L59.080633,310.610707 L59.080633,295.840549 L73.8507913,295.840549 L73.8507913,310.610707 Z M192.012057,428.771973 L177.241899,428.771973 L177.241899,414.001815 L192.012057,414.001815 L192.012057,428.771973 Z M132.931424,369.69134 L118.161266,369.69134 L118.161266,354.921182 L132.931424,354.921182 L132.931424,369.69134 Z M236.322532,473.082448 L221.552374,473.082448 L221.552374,458.312289 L236.322532,458.312289 L236.322532,473.082448 Z M59.080633,295.840549 L44.3104748,295.840549 L44.3104748,281.07039 L59.080633,281.07039 L59.080633,295.840549 Z M177.241899,414.001815 L162.471741,414.001815 L162.471741,399.231656 L177.241899,399.231656 L177.241899,414.001815 Z M118.161266,354.921182 L103.391108,354.921182 L103.391108,340.151023 L118.161266,340.151023 L118.161266,354.921182 Z M221.552374,458.312289 L206.782216,458.312289 L206.782216,443.542131 L221.552374,443.542131 L221.552374,458.312289 Z M44.3104748,281.07039 L29.5403165,281.07039 L29.5403165,266.300232 L44.3104748,266.300232 L44.3104748,281.07039 Z M162.471741,399.231656 L147.701583,399.231656 L147.701583,384.461498 L162.471741,384.461498 L162.471741,399.231656 Z M103.391108,340.151023 L88.6209495,340.151023 L88.6209495,325.380865 L103.391108,325.380865 L103.391108,340.151023 Z M206.782216,443.542131 L192.012057,443.542131 L192.012057,428.771973 L206.782216,428.771973 L206.782216,443.542131 Z M29.5403165,266.300232 L14.7701583,266.300232 L14.7701583,251.530074 L29.5403165,251.530074 L29.5403165,266.300232 Z M147.701583,384.461498 L132.931424,384.461498 L132.931424,369.69134 L147.701583,369.69134 L147.701583,384.461498 Z M88.6209495,325.380865 L73.8507913,325.380865 L73.8507913,310.610707 L88.6209495,310.610707 L88.6209495,325.380865 Z" fill="#000000"></path>
        </g>
    </g>
</svg>