<?xml version="1.0" encoding="UTF-8"?>
<svg width="567px" height="596px" viewBox="0 0 567 596" version="1.1" xmlns="http://www.w3.org/2000/svg" xmlns:xlink="http://www.w3.org/1999/xlink">
    <!-- Generator: Sketch 41.2 (35397) - http://www.bohemiancoding.com/sketch -->
    <title>bomb</title>
    <desc>Created with Sketch.</desc>
    <defs></defs>
    <g id="Page-1" stroke="none" stroke-width="1" fill="none" fill-rule="evenodd">
        <g id="bomb">
            <ellipse id="Oval" fill="#FFFFFF" cx="177.5" cy="417" rx="150.5" ry="142"></ellipse>
            <path d="M163.287671,212.954338 L108.178082,212.954338 L108.178082,266.703196 L72.1187215,266.703196 L72.1187215,278.949772 L34.0182648,278.949772 L34.0182648,322.493151 L315.689498,322.493151 L315.689498,278.949772 L274.187215,278.949772 L274.187215,266.703196 L242.890411,266.703196 L242.890411,212.954338 L183.69863,212.954338 L183.69863,157.164384 L163.287671,157.164384 L163.287671,212.954338 Z M14.9680365,356.511416 L2.27373675e-13,356.511416 L2.27373675e-13,485.100457 L18.369863,485.100457 L18.369863,519.118721 L34.0182648,519.118721 L34.0182648,557.899543 L72.1187215,557.899543 L72.1187215,575.589041 L100.694064,575.589041 L100.694064,596 L235.406393,596 L235.406393,575.589041 L274.187215,575.589041 L274.187215,557.899543 L315.689498,557.899543 L315.689498,519.118721 L327.255708,519.118721 L327.255708,485.100457 L347.666667,485.100457 L347.666667,356.511416 L330.657534,356.511416 L330.657534,322.493151 L14.9680365,322.493151 L14.9680365,356.511416 Z M204.109589,157.164384 L183.69863,157.164384 L183.69863,139.474886 L204.109589,139.474886 L204.109589,157.164384 Z M292.557078,139.474886 L200.027397,139.474886 L200.027397,121.785388 L292.557078,121.785388 L292.557078,139.474886 Z M330.657534,157.164384 L292.557078,157.164384 L292.557078,139.474886 L330.657534,139.474886 L330.657534,157.164384 Z M383.045662,174.853881 L330.657534,174.853881 L330.657534,157.164384 L383.045662,157.164384 L383.045662,174.853881 Z M435.43379,157.164384 L383.045662,157.164384 L383.045662,139.474886 L435.43379,139.474886 L435.43379,157.164384 Z M386.447489,121.785388 L366.03653,121.785388 L366.03653,101.374429 L386.447489,101.374429 L386.447489,121.785388 Z M491.223744,139.474886 L470.812785,139.474886 L470.812785,119.063927 L491.223744,119.063927 L491.223744,139.474886 Z M481.018265,80.9634703 L460.607306,80.9634703 L460.607306,60.5525114 L481.018265,60.5525114 L481.018265,80.9634703 Z M386.447489,212.954338 L366.03653,212.954338 L366.03653,192.543379 L386.447489,192.543379 L386.447489,212.954338 Z M368.077626,233.365297 L347.666667,233.365297 L347.666667,212.954338 L368.077626,212.954338 L368.077626,233.365297 Z M351.068493,253.776256 L330.657534,253.776256 L330.657534,233.365297 L351.068493,233.365297 L351.068493,253.776256 Z M439.515982,212.954338 L419.105023,212.954338 L419.105023,192.543379 L439.515982,192.543379 L439.515982,212.954338 Z M491.223744,189.821918 L470.812785,189.821918 L470.812785,169.410959 L491.223744,169.410959 L491.223744,189.821918 Z M511.634703,210.232877 L491.223744,210.232877 L491.223744,189.821918 L511.634703,189.821918 L511.634703,210.232877 Z M532.045662,230.643836 L511.634703,230.643836 L511.634703,210.232877 L532.045662,210.232877 L532.045662,230.643836 Z M552.456621,251.054795 L532.045662,251.054795 L532.045662,230.643836 L552.456621,230.643836 L552.456621,251.054795 Z M439.515982,253.776256 L419.105023,253.776256 L419.105023,233.365297 L439.515982,233.365297 L439.515982,253.776256 Z M439.515982,287.114155 L419.105023,287.114155 L419.105023,266.703196 L439.515982,266.703196 L439.515982,287.114155 Z M501.429224,60.5525114 L481.018265,60.5525114 L481.018265,40.1415525 L501.429224,40.1415525 L501.429224,60.5525114 Z M521.840183,40.8219178 L501.429224,40.8219178 L501.429224,20.4109589 L521.840183,20.4109589 L521.840183,40.8219178 Z M542.251142,20.4109589 L521.840183,20.4109589 L521.840183,-3.19744231e-14 L542.251142,-2.84217094e-14 L542.251142,20.4109589 Z M532.726027,139.474886 L512.315068,139.474886 L512.315068,119.063927 L532.726027,119.063927 L532.726027,139.474886 Z M566.063927,139.474886 L545.652968,139.474886 L545.652968,119.063927 L566.063927,119.063927 L566.063927,139.474886 Z M383.045662,30.6164384 L362.634703,30.6164384 L362.634703,10.2054795 L383.045662,10.2054795 L383.045662,30.6164384 Z M403.456621,70.7579909 L383.045662,70.7579909 L383.045662,50.347032 L403.456621,50.347032 L403.456621,70.7579909 Z M419.105023,101.374429 L398.694064,101.374429 L398.694064,80.9634703 L419.105023,80.9634703 L419.105023,101.374429 Z M347.666667,101.374429 L327.255708,101.374429 L327.255708,80.9634703 L347.666667,80.9634703 L347.666667,101.374429 Z M312.968037,80.9634703 L292.557078,80.9634703 L292.557078,60.5525114 L312.968037,60.5525114 L312.968037,80.9634703 Z M289.155251,383.726027 L307.525114,383.726027 L307.525114,436.794521 L289.155251,436.794521 L289.155251,383.726027 Z M270.785388,346.986301 L291.196347,346.986301 L291.196347,367.39726 L270.785388,367.39726 L270.785388,346.986301 Z M270.785388,453.123288 L291.196347,453.123288 L291.196347,473.534247 L270.785388,473.534247 L270.785388,453.123288 Z M234.045662,489.182648 L254.456621,489.182648 L254.456621,509.593607 L234.045662,509.593607 L234.045662,489.182648 Z" fill="#000000"></path>
        </g>
    </g>
</svg>