<?xml version="1.0" encoding="UTF-8"?>
<svg width="381px" height="490px" viewBox="0 0 381 490" version="1.1" xmlns="http://www.w3.org/2000/svg" xmlns:xlink="http://www.w3.org/1999/xlink">
    <!-- Generator: Sketch 41.2 (35397) - http://www.bohemiancoding.com/sketch -->
    <title>document</title>
    <desc>Created with Sketch.</desc>
    <defs></defs>
    <g id="Page-1" stroke="none" stroke-width="1" fill="none" fill-rule="evenodd">
        <g id="document">
            <polygon id="document-bg" fill="#FFFFFF" points="8.62320394 11.8746957 8.38267806 480.023255 374.533229 480.789931 374.262637 100.458375 360.156796 96.4997197 342.979239 64.8154453 279.76603 7.20949575"></polygon>
            <path d="M290,17.4373836 L290,8.43738356 L290,0.437383556 L0,0.437383556 L0,8.43738356 L0,481.937384 L0,489.437384 L374,489.437384 L381,489.437384 L381,100.437384 L381,92.4373836 L365,92.4373836 L365,77.4373836 L350,77.4373836 L350,62.4373836 L335,62.4373836 L335,47.4373836 L320,47.4373836 L320,32.4373836 L305,32.4373836 L305,17.4373836 L290,17.4373836 Z M290,33.4373836 L290,92.4373836 L349,92.4373836 L349,78.4373836 L334,78.4373836 L334,63.4373836 L319,63.4373836 L319,48.4373836 L304,48.4373836 L304,33.4373836 L290,33.4373836 Z M276,16.4373836 L14,16.4373836 L14,474.437384 L367,474.437384 L367,107.437384 L276,107.437384 L276,99.9373836 L276,16.4373836 Z" id="Document" fill="#000000"></path>
        </g>
    </g>
</svg>