<?xml version="1.0" encoding="UTF-8"?>
<svg width="517px" height="380px" viewBox="0 0 517 380" version="1.1" xmlns="http://www.w3.org/2000/svg" xmlns:xlink="http://www.w3.org/1999/xlink">
    <!-- Generator: Sketch 41.2 (35397) - http://www.bohemiancoding.com/sketch -->
    <title>folder</title>
    <desc>Created with Sketch.</desc>
    <defs></defs>
    <g id="Page-1" stroke="none" stroke-width="1" fill="none" fill-rule="evenodd">
        <g id="folder">
            <polygon id="folder-bg" fill="#FFFFFF" points="67.7866295 10.3883613 34.1044524 43.9134551 7.15425294 62.940858 8.15259064 371.896427 511.158387 371.863149 510.180016 64.4416924 489.338053 51.1538175 219.893362 51.2203734 200.382515 16.4549268 183.780159 8.04226771"></polygon>
            <path d="M63,13.4373836 L48,13.4373836 L48,28.4373836 L33,28.4373836 L33,44.4373836 L49,44.4373836 L49,29.4373836 L64,29.4373836 L64,14.4373836 L193,14.4373836 L193,29.4373836 L208,29.4373836 L208,44.4373836 L224,44.4373836 L224,28.4373836 L209,28.4373836 L209,13.4373836 L194,13.4373836 L194,0.437383556 L63,0.437383556 L63,13.4373836 Z M509.5,379.437384 L517,379.437384 L517,58.4373836 L503,58.4373836 L503,365.437384 L14,365.437384 L14,58.4373836 L0,58.4373836 L0,379.437384 L7.5,379.437384 L509.5,379.437384 Z M503,44.4373836 L503,58.4373836 L14,58.4373836 L14,44.4373836 L503,44.4373836 Z" id="Folder" fill="#000000"></path>
        </g>
    </g>
</svg>